<svg id="Layer_1" data-name="Layer 1" xmlns="http://www.w3.org/2000/svg" viewBox="0 0 512 512"><title>footprint3-glyph</title><path d="M142.3,503.25S96.38,475.41,71.83,381.95c0,0-18-55.16,14-95.73s79.25-36.53,89.5-38c0,0,57.71.64,65.43,69.06,0,0,1.85,27.5-34.2,33,0,0-45.67,6.79-32.21,54.85,0,0,12.57,28.4,26.07,36.78,0,0,55.63,57.44-14.33,69.79C186.12,511.69,160.09,514.5,142.3,503.25Z" fill="#5b5b5f"/><path d="M281.47,206.56c4.41,21.84-9.15,43-30.33,47.33s-42-9.89-46.39-31.75,9.15-43,30.33-47.34S277,184.74,281.47,206.56Z" fill="#5b5b5f"/><path d="M192.71,211.58c2.41,12-5.06,23.64-16.75,26s-23-5.42-25.5-17.43,5.06-23.63,16.71-26S190.27,199.62,192.71,211.58Z" fill="#5b5b5f"/><path d="M141,222.1c2.56,12.63-3.22,24.51-12.9,26.44s-19.63-6.67-22.2-19.34,3.22-24.48,12.9-26.44S138.37,209.44,141,222.1Z" fill="#5b5b5f"/><path d="M100.17,239.33c5.42,9.46,2.56,21.24-6.32,26.31s-20.44,1.5-25.86-8-2.56-21.23,6.32-26.28S94.75,229.85,100.17,239.33Z" fill="#5b5b5f"/><path d="M69.93,275.49c5,8.73,3,19.23-4.41,23.49S48,299.55,43,290.85s-3-19.26,4.44-23.49S65,266.75,69.93,275.49Z" fill="#5b5b5f"/><path d="M387.63,320.32s43.56-31.4,60.6-126.54c0,0,13.59-56.42-21.57-94.3s-81.94-30.09-92.24-30.73c0,0-57.47,5.23-59.74,74,0,0,.36,27.55,36.71,30.14,0,0,46.09,3.13,36.47,52.08,0,0-10.28,29.32-23.06,38.78,0,0-50.86,61.69,19.84,68.42C344.63,332.2,370.82,332.93,387.63,320.32Z" fill="#5b5b5f"/><path d="M225.36,35.63c-2.71,22.14,12.54,42.16,34,44.78s41.06-13.21,43.74-35.34S290.53,2.9,269.07.28,228,13.49,225.36,35.63Z" fill="#5b5b5f"/><path d="M314.24,33.59c-1.46,12.14,6.91,23.14,18.71,24.58s22.58-7.26,24-19.4-6.91-23.15-18.71-24.58S315.7,21.43,314.24,33.59Z" fill="#5b5b5f"/><path d="M366.65,39.95c-1.55,12.8,5.13,24.15,15,25.34s19-8.22,20.59-21-5.15-24.15-15-25.37S368.23,27.12,366.65,39.95Z" fill="#5b5b5f"/><path d="M408.69,53.86c-4.62,9.86-.89,21.38,8.34,25.73s20.53-.12,25.15-10,.89-21.36-8.37-25.71S413.31,44,408.69,53.86Z" fill="#5b5b5f"/><path d="M441.67,87.5c-4.26,9.13-1.46,19.44,6.32,23.06s17.46-.77,21.75-9.89,1.46-19.41-6.32-23.06S445.93,78.4,441.67,87.5Z" fill="#5b5b5f"/></svg>